<?xml version="1.0" encoding="UTF-8" standalone="no"?>
<!-- Created with Inkscape (http://www.inkscape.org/) -->
<svg
   xmlns:dc="http://purl.org/dc/elements/1.1/"
   xmlns:cc="http://web.resource.org/cc/"
   xmlns:rdf="http://www.w3.org/1999/02/22-rdf-syntax-ns#"
   xmlns:svg="http://www.w3.org/2000/svg"
   xmlns="http://www.w3.org/2000/svg"
   xmlns:xlink="http://www.w3.org/1999/xlink"
   xmlns:sodipodi="http://sodipodi.sourceforge.net/DTD/sodipodi-0.dtd"
   xmlns:inkscape="http://www.inkscape.org/namespaces/inkscape"
   width="35"
   height="35"
   id="svg2"
   sodipodi:version="0.32"
   inkscape:version="0.45"
   sodipodi:docbase="/home/kde-devel/kapman/src/images"
   sodipodi:docname="ghostred.svg"
   inkscape:output_extension="org.inkscape.output.svg.inkscape"
   version="1.0"
   sodipodi:modified="true">
  <defs
     id="defs4">
    <radialGradient
       inkscape:collect="always"
       xlink:href="#linearGradient5093"
       id="radialGradient2414"
       gradientUnits="userSpaceOnUse"
       gradientTransform="matrix(1.1564744,1.4651087,-1.3937077,1.0495413,641.60127,-498.39732)"
       cx="323.47079"
       cy="496.65045"
       fx="323.47079"
       fy="496.65045"
       r="2.4748738" />
    <radialGradient
       inkscape:collect="always"
       xlink:href="#linearGradient5093"
       id="radialGradient2404"
       gradientUnits="userSpaceOnUse"
       gradientTransform="matrix(1.1564744,1.4651087,-1.3937077,1.0495413,641.60127,-498.39732)"
       cx="323.47079"
       cy="496.65045"
       fx="323.47079"
       fy="496.65045"
       r="2.4748738" />
    <linearGradient
       inkscape:collect="always"
       id="linearGradient20752">
      <stop
         style="stop-color:#000000;stop-opacity:1;"
         offset="0"
         id="stop20754" />
      <stop
         style="stop-color:#000000;stop-opacity:0;"
         offset="1"
         id="stop20756" />
    </linearGradient>
    <linearGradient
       id="linearGradient8040">
      <stop
         id="stop8042"
         offset="0"
         style="stop-color:#000000;stop-opacity:0;" />
      <stop
         id="stop8044"
         offset="0"
         style="stop-color:#000000;stop-opacity:0;" />
    </linearGradient>
    <linearGradient
       id="linearGradient5093">
      <stop
         style="stop-color:#000000;stop-opacity:0;"
         offset="0"
         id="stop5095" />
      <stop
         id="stop6080"
         offset="1"
         style="stop-color:#000000;stop-opacity:1;" />
    </linearGradient>
    <radialGradient
       inkscape:collect="always"
       xlink:href="#linearGradient5093"
       id="radialGradient20923"
       gradientUnits="userSpaceOnUse"
       gradientTransform="matrix(1.0763026,1.7866733,-1.7570915,1.0584824,877.10477,-647.7571)"
       cx="346.84158"
       cy="513.85712"
       fx="346.84158"
       fy="513.85712"
       r="17.512251" />
    <radialGradient
       inkscape:collect="always"
       xlink:href="#linearGradient5093"
       id="radialGradient31907"
       gradientUnits="userSpaceOnUse"
       gradientTransform="matrix(1.1564744,1.4651087,-1.3937077,1.0495413,641.60127,-498.39732)"
       cx="323.47079"
       cy="496.65045"
       fx="323.47079"
       fy="496.65045"
       r="2.4748738" />
    <radialGradient
       inkscape:collect="always"
       xlink:href="#linearGradient5093"
       id="radialGradient31909"
       gradientUnits="userSpaceOnUse"
       gradientTransform="matrix(1.1564744,1.4651087,-1.3937077,1.0495413,641.60127,-498.39732)"
       cx="323.47079"
       cy="496.65045"
       fx="323.47079"
       fy="496.65045"
       r="2.4748738" />
    <radialGradient
       inkscape:collect="always"
       xlink:href="#linearGradient20752"
       id="radialGradient31911"
       gradientUnits="userSpaceOnUse"
       gradientTransform="matrix(1.0000002,-8.6769666e-7,1.2365227e-7,0.1564631,-1.2000973e-4,466.67288)"
       cx="328.89304"
       cy="553.23315"
       fx="328.89304"
       fy="553.23315"
       r="12.993087" />
    <radialGradient
       inkscape:collect="always"
       xlink:href="#linearGradient5093"
       id="radialGradient31924"
       gradientUnits="userSpaceOnUse"
       gradientTransform="matrix(1.0763026,1.7866733,-1.7570915,1.0584824,871.63245,-1107.4466)"
       cx="346.84158"
       cy="513.85712"
       fx="346.84158"
       fy="513.85712"
       r="17.512251" />
    <radialGradient
       inkscape:collect="always"
       xlink:href="#linearGradient5093"
       id="radialGradient34607"
       gradientUnits="userSpaceOnUse"
       gradientTransform="matrix(1.0763026,1.7866733,-1.7570915,1.0584824,871.63245,-1107.4466)"
       cx="346.84158"
       cy="513.85712"
       fx="346.84158"
       fy="513.85712"
       r="17.512251" />
    <radialGradient
       inkscape:collect="always"
       xlink:href="#linearGradient5093"
       id="radialGradient34609"
       gradientUnits="userSpaceOnUse"
       gradientTransform="matrix(1.1564744,1.4651087,-1.3937077,1.0495413,641.60127,-498.39732)"
       cx="323.47079"
       cy="496.65045"
       fx="323.47079"
       fy="496.65045"
       r="2.4748738" />
    <radialGradient
       inkscape:collect="always"
       xlink:href="#linearGradient5093"
       id="radialGradient34611"
       gradientUnits="userSpaceOnUse"
       gradientTransform="matrix(1.1564744,1.4651087,-1.3937077,1.0495413,641.60127,-498.39732)"
       cx="323.47079"
       cy="496.65045"
       fx="323.47079"
       fy="496.65045"
       r="2.4748738" />
    <radialGradient
       inkscape:collect="always"
       xlink:href="#linearGradient20752"
       id="radialGradient34613"
       gradientUnits="userSpaceOnUse"
       gradientTransform="matrix(1.0000002,-8.6769666e-7,1.2365227e-7,0.1564631,-1.2000973e-4,466.67288)"
       cx="328.89304"
       cy="553.23315"
       fx="328.89304"
       fy="553.23315"
       r="12.993087" />
    <radialGradient
       inkscape:collect="always"
       xlink:href="#linearGradient5093"
       id="radialGradient34627"
       gradientUnits="userSpaceOnUse"
       gradientTransform="matrix(1.0763026,1.7866733,-1.7570915,1.0584824,867.63245,-1024.4466)"
       cx="346.84158"
       cy="513.85712"
       fx="346.84158"
       fy="513.85712"
       r="17.512251" />
    <radialGradient
       inkscape:collect="always"
       xlink:href="#linearGradient5093"
       id="radialGradient35942"
       gradientUnits="userSpaceOnUse"
       gradientTransform="matrix(1.0763026,1.7866733,-1.7570915,1.0584824,867.63245,-1024.4466)"
       cx="346.84158"
       cy="513.85712"
       fx="346.84158"
       fy="513.85712"
       r="17.512251" />
    <radialGradient
       inkscape:collect="always"
       xlink:href="#linearGradient5093"
       id="radialGradient35944"
       gradientUnits="userSpaceOnUse"
       gradientTransform="matrix(1.1564744,1.4651087,-1.3937077,1.0495413,641.60127,-498.39732)"
       cx="323.47079"
       cy="496.65045"
       fx="323.47079"
       fy="496.65045"
       r="2.4748738" />
    <radialGradient
       inkscape:collect="always"
       xlink:href="#linearGradient5093"
       id="radialGradient35946"
       gradientUnits="userSpaceOnUse"
       gradientTransform="matrix(1.1564744,1.4651087,-1.3937077,1.0495413,641.60127,-498.39732)"
       cx="323.47079"
       cy="496.65045"
       fx="323.47079"
       fy="496.65045"
       r="2.4748738" />
    <radialGradient
       inkscape:collect="always"
       xlink:href="#linearGradient20752"
       id="radialGradient35948"
       gradientUnits="userSpaceOnUse"
       gradientTransform="matrix(1.0000002,-8.6769666e-7,1.2365227e-7,0.1564631,-1.2000973e-4,466.67288)"
       cx="328.89304"
       cy="553.23315"
       fx="328.89304"
       fy="553.23315"
       r="12.993087" />
    <radialGradient
       inkscape:collect="always"
       xlink:href="#linearGradient5093"
       id="radialGradient35962"
       gradientUnits="userSpaceOnUse"
       gradientTransform="matrix(1.0763026,1.7866733,-1.7570915,1.0584824,867.63245,-1024.4466)"
       cx="346.84158"
       cy="513.85712"
       fx="346.84158"
       fy="513.85712"
       r="17.512251" />
    <radialGradient
       inkscape:collect="always"
       xlink:href="#linearGradient5093"
       id="radialGradient35980"
       gradientUnits="userSpaceOnUse"
       gradientTransform="matrix(1.0763026,1.7866733,-1.7570915,1.0584824,867.63245,-1024.4466)"
       cx="346.84158"
       cy="513.85712"
       fx="346.84158"
       fy="513.85712"
       r="17.512251" />
    <radialGradient
       inkscape:collect="always"
       xlink:href="#linearGradient5093"
       id="radialGradient35982"
       gradientUnits="userSpaceOnUse"
       gradientTransform="matrix(1.1564744,1.4651087,-1.3937077,1.0495413,641.60127,-498.39732)"
       cx="323.47079"
       cy="496.65045"
       fx="323.47079"
       fy="496.65045"
       r="2.4748738" />
    <radialGradient
       inkscape:collect="always"
       xlink:href="#linearGradient5093"
       id="radialGradient35984"
       gradientUnits="userSpaceOnUse"
       gradientTransform="matrix(1.1564744,1.4651087,-1.3937077,1.0495413,641.60127,-498.39732)"
       cx="323.47079"
       cy="496.65045"
       fx="323.47079"
       fy="496.65045"
       r="2.4748738" />
    <radialGradient
       inkscape:collect="always"
       xlink:href="#linearGradient20752"
       id="radialGradient35986"
       gradientUnits="userSpaceOnUse"
       gradientTransform="matrix(1.0000002,-8.6769666e-7,1.2365227e-7,0.1564631,-1.2000973e-4,466.67288)"
       cx="328.89304"
       cy="553.23315"
       fx="328.89304"
       fy="553.23315"
       r="12.993087" />
    <radialGradient
       inkscape:collect="always"
       xlink:href="#linearGradient5093"
       id="radialGradient2217"
       gradientUnits="userSpaceOnUse"
       gradientTransform="matrix(1.0763026,1.7866733,-1.7570915,1.0584824,891.46437,-1020.613)"
       cx="346.84158"
       cy="513.85712"
       fx="346.84158"
       fy="513.85712"
       r="17.512251" />
    <radialGradient
       inkscape:collect="always"
       xlink:href="#linearGradient5093"
       id="radialGradient2220"
       gradientUnits="userSpaceOnUse"
       gradientTransform="matrix(1.1564744,1.4651087,-1.3937077,1.0495413,641.60127,-498.39732)"
       cx="323.47079"
       cy="496.65045"
       fx="323.47079"
       fy="496.65045"
       r="2.4748738" />
    <radialGradient
       inkscape:collect="always"
       xlink:href="#linearGradient5093"
       id="radialGradient2222"
       gradientUnits="userSpaceOnUse"
       gradientTransform="matrix(1.1564744,1.4651087,-1.3937077,1.0495413,641.60127,-498.39732)"
       cx="323.47079"
       cy="496.65045"
       fx="323.47079"
       fy="496.65045"
       r="2.4748738" />
    <radialGradient
       inkscape:collect="always"
       xlink:href="#linearGradient20752"
       id="radialGradient2224"
       gradientUnits="userSpaceOnUse"
       gradientTransform="matrix(1.0000002,-8.6769666e-7,1.2365227e-7,0.1564631,-1.2000973e-4,466.67288)"
       cx="328.89304"
       cy="553.23315"
       fx="328.89304"
       fy="553.23315"
       r="12.993087" />
    <radialGradient
       inkscape:collect="always"
       xlink:href="#linearGradient5093"
       id="radialGradient2221"
       gradientUnits="userSpaceOnUse"
       gradientTransform="matrix(0.96424,1.5883218,-1.5741465,0.9409726,1104.0574,-1306.0184)"
       cx="346.84158"
       cy="513.85712"
       fx="346.84158"
       fy="513.85712"
       r="17.512251" />
    <filter
       inkscape:collect="always"
       x="-0.18811177"
       width="1.3762234"
       y="-0.21347173"
       height="1.4269435"
       id="filter3195">
      <feGaussianBlur
         inkscape:collect="always"
         stdDeviation="1.0070504"
         id="feGaussianBlur3197" />
    </filter>
    <filter
       inkscape:collect="always"
       x="-0.6763261"
       width="2.3526523"
       y="-0.6259408"
       height="2.2518816"
       id="filter4168">
      <feGaussianBlur
         inkscape:collect="always"
         stdDeviation="2.2034155"
         id="feGaussianBlur4170" />
    </filter>
    <radialGradient
       inkscape:collect="always"
       xlink:href="#linearGradient5093"
       id="radialGradient2223"
       gradientUnits="userSpaceOnUse"
       gradientTransform="matrix(0.96424,1.5883218,-1.5741465,0.9409726,1104.0574,-1306.0184)"
       cx="346.84158"
       cy="513.85712"
       fx="346.84158"
       fy="513.85712"
       r="17.512251" />
    <radialGradient
       inkscape:collect="always"
       xlink:href="#linearGradient5093"
       id="radialGradient2242"
       gradientUnits="userSpaceOnUse"
       gradientTransform="matrix(1.1564744,1.4651087,-1.3937077,1.0495413,641.60127,-498.39732)"
       cx="323.47079"
       cy="496.65045"
       fx="323.47079"
       fy="496.65045"
       r="2.4748738" />
    <radialGradient
       inkscape:collect="always"
       xlink:href="#linearGradient5093"
       id="radialGradient2244"
       gradientUnits="userSpaceOnUse"
       gradientTransform="matrix(1.1564744,1.4651087,-1.3937077,1.0495413,641.60127,-498.39732)"
       cx="323.47079"
       cy="496.65045"
       fx="323.47079"
       fy="496.65045"
       r="2.4748738" />
    <radialGradient
       inkscape:collect="always"
       xlink:href="#linearGradient5093"
       id="radialGradient3257"
       gradientUnits="userSpaceOnUse"
       gradientTransform="matrix(1.079402,1.7827885,-1.7621514,1.0561809,1200.1552,-1436.079)"
       cx="346.84158"
       cy="513.85712"
       fx="346.84158"
       fy="513.85712"
       r="17.512251" />
    <radialGradient
       inkscape:collect="always"
       xlink:href="#linearGradient5093"
       id="radialGradient3270"
       gradientUnits="userSpaceOnUse"
       gradientTransform="matrix(1.1564744,1.4651087,-1.3937077,1.0495413,641.60127,-498.39732)"
       cx="323.47079"
       cy="496.65045"
       fx="323.47079"
       fy="496.65045"
       r="2.4748738" />
    <radialGradient
       inkscape:collect="always"
       xlink:href="#linearGradient5093"
       id="radialGradient3272"
       gradientUnits="userSpaceOnUse"
       gradientTransform="matrix(1.1564744,1.4651087,-1.3937077,1.0495413,641.60127,-498.39732)"
       cx="323.47079"
       cy="496.65045"
       fx="323.47079"
       fy="496.65045"
       r="2.4748738" />
    <radialGradient
       inkscape:collect="always"
       xlink:href="#linearGradient5093"
       id="radialGradient4273"
       gradientUnits="userSpaceOnUse"
       gradientTransform="matrix(1.1564744,1.4651087,-1.3937077,1.0495413,641.60127,-498.39732)"
       cx="323.47079"
       cy="496.65045"
       fx="323.47079"
       fy="496.65045"
       r="2.4748738" />
    <radialGradient
       inkscape:collect="always"
       xlink:href="#linearGradient5093"
       id="radialGradient4275"
       gradientUnits="userSpaceOnUse"
       gradientTransform="matrix(1.1564744,1.4651087,-1.3937077,1.0495413,641.60127,-498.39732)"
       cx="323.47079"
       cy="496.65045"
       fx="323.47079"
       fy="496.65045"
       r="2.4748738" />
    <radialGradient
       inkscape:collect="always"
       xlink:href="#linearGradient5093"
       id="radialGradient4284"
       gradientUnits="userSpaceOnUse"
       gradientTransform="matrix(1.079402,1.7827885,-1.7621514,1.0561809,1241.8746,-1436.7862)"
       cx="346.84158"
       cy="513.85712"
       fx="346.84158"
       fy="513.85712"
       r="17.512251" />
    <radialGradient
       inkscape:collect="always"
       xlink:href="#linearGradient5093"
       id="radialGradient2246"
       gradientUnits="userSpaceOnUse"
       gradientTransform="matrix(1.079402,1.7827885,-1.7621514,1.0561809,1161.7947,-1435.3719)"
       cx="346.84158"
       cy="513.85712"
       fx="346.84158"
       fy="513.85712"
       r="17.512251" />
  </defs>
  <sodipodi:namedview
     id="base"
     pagecolor="#ffffff"
     bordercolor="#666666"
     borderopacity="1.0"
     inkscape:pageopacity="0.0"
     inkscape:pageshadow="2"
     inkscape:zoom="5.6568542"
     inkscape:cx="64.265441"
     inkscape:cy="36.185812"
     inkscape:document-units="px"
     inkscape:current-layer="layer1"
     inkscape:window-width="1280"
     inkscape:window-height="776"
     inkscape:window-x="0"
     inkscape:window-y="0" />
  <metadata
     id="metadata7">
    <rdf:RDF>
      <cc:Work
         rdf:about="">
        <dc:format>image/svg+xml</dc:format>
        <dc:type
           rdf:resource="http://purl.org/dc/dcmitype/StillImage" />
      </cc:Work>
    </rdf:RDF>
  </metadata>
  <g
     inkscape:label="Calque 1"
     inkscape:groupmode="layer"
     id="layer1"
     transform="translate(-620.62816,283.06972)">
    <g
       id="ghost_hunter"
       inkscape:label="Blinky">
      <path
         sodipodi:nodetypes="csssssssssssc"
         id="path2160"
         d="M 655.62815,-265.63397 C 655.62815,-264.36402 655.48885,-254.85288 655.22451,-253.66076 C 654.7948,-251.723 654.03471,-250.42375 653.00545,-249.56484 C 651.97618,-248.70593 650.67776,-248.28738 649.17141,-248.11106 C 647.66506,-247.93471 645.9508,-252.85035 644.08985,-252.96033 C 642.22889,-253.07029 640.22124,-248.37461 638.12816,-248.37461 C 636.04585,-248.37461 634.04808,-253.06658 632.19521,-252.95008 C 630.34231,-252.83358 628.63431,-247.90865 627.13144,-248.07378 C 625.62861,-248.23893 624.33093,-248.64442 623.29871,-249.48933 C 622.26649,-250.33424 621.49973,-251.61856 621.05876,-253.54136 C 620.77693,-254.77013 620.62817,-264.32156 620.62817,-265.63397 C 620.62817,-275.16114 628.46817,-282.89333 638.12816,-282.89333 C 647.78816,-282.89333 655.62815,-275.16114 655.62815,-265.63397 z "
         style="fill:#ff0000;fill-opacity:1;fill-rule:evenodd;stroke:none;stroke-width:0.10050607px;stroke-linecap:butt;stroke-linejoin:miter;stroke-opacity:1" />
      <path
         style="fill:url(#radialGradient2246);fill-opacity:1;fill-rule:evenodd;stroke:none;stroke-width:0.10050607px;stroke-linecap:butt;stroke-linejoin:miter;stroke-opacity:1"
         d="M 655.62814,-265.6336 C 655.62814,-264.36364 655.48884,-254.8525 655.2245,-253.66038 C 654.79479,-251.72263 654.0347,-250.42337 653.00543,-249.56446 C 651.97617,-248.70556 650.67775,-248.287 649.17141,-248.11068 C 647.66505,-247.93435 645.95079,-252.84997 644.08983,-252.95995 C 642.22888,-253.06992 640.22123,-248.37424 638.12815,-248.37424 C 636.04584,-248.37424 634.04808,-253.0662 632.1952,-252.9497 C 630.34231,-252.83321 628.63429,-247.90827 627.13144,-248.07341 C 625.62859,-248.23855 624.33091,-248.64405 623.2987,-249.48895 C 622.26648,-250.33386 621.49972,-251.61819 621.05875,-253.54099 C 620.77693,-254.76976 620.62816,-264.32118 620.62816,-265.6336 C 620.62816,-275.16076 628.46816,-282.89295 638.12815,-282.89295 C 647.78815,-282.89295 655.62814,-275.16076 655.62814,-265.6336 z "
         id="path9017"
         sodipodi:nodetypes="csssssssssssc" />
      <g
         transform="matrix(1.2127846,0,0,1.2066728,195.12928,-896.73387)"
         id="g13002">
        <path
           sodipodi:type="arc"
           style="fill:#ffffff;fill-opacity:1;fill-rule:evenodd"
           id="path13004"
           sodipodi:cx="324.56201"
           sodipodi:cy="497.81369"
           sodipodi:rx="2.4748738"
           sodipodi:ry="2.4748738"
           d="M 327.03689 497.81369 A 2.4748738 2.4748738 0 1 1  322.08714,497.81369 A 2.4748738 2.4748738 0 1 1  327.03689 497.81369 z"
           transform="matrix(1.5,0,0,1.5357143,-123.21335,-245.38431)" />
        <path
           transform="matrix(1.5,0,0,1.5357143,-123.21335,-245.38431)"
           d="M 327.03689 497.81369 A 2.4748738 2.4748738 0 1 1  322.08714,497.81369 A 2.4748738 2.4748738 0 1 1  327.03689 497.81369 z"
           sodipodi:ry="2.4748738"
           sodipodi:rx="2.4748738"
           sodipodi:cy="497.81369"
           sodipodi:cx="324.56201"
           id="path13006"
           style="fill:url(#radialGradient2242);fill-opacity:1;fill-rule:evenodd"
           sodipodi:type="arc" />
        <path
           sodipodi:type="arc"
           style="fill:#000000;fill-opacity:1;fill-rule:evenodd"
           id="path13008"
           sodipodi:cx="299.72488"
           sodipodi:cy="500.02341"
           sodipodi:rx="1.8561553"
           sodipodi:ry="1.8561553"
           d="M 301.58104 500.02341 A 1.8561553 1.8561553 0 1 1  297.86873,500.02341 A 1.8561553 1.8561553 0 1 1  301.58104 500.02341 z"
           transform="translate(65.230601,19.26866)" />
      </g>
      <path
         sodipodi:nodetypes="csssccc"
         id="path13012"
         d="M 300.70774,507.31143 C 300.70774,511.11708 300.96943,514.07715 299.99005,514.07715 C 299.01067,514.07715 297.43994,511.60053 297.43994,507.79488 C 297.43994,503.98923 299.01067,500.28857 299.99005,500.28857 C 300.96832,500.28857 300.60859,502.94036 300.61032,506.74171 L 299.99005,507.18286 L 300.70774,507.31143 z "
         style="opacity:0.35;fill:#ffffff;fill-opacity:1;fill-rule:evenodd;filter:url(#filter3195)"
         transform="matrix(0.6635901,0.7481522,-0.7519415,0.6602459,811.76845,-835.5442)" />
      <g
         id="g15370"
         transform="matrix(1.2127846,0,0,1.2066728,205.9437,-896.73387)">
        <path
           transform="matrix(1.5,0,0,1.5357143,-123.21335,-245.38431)"
           d="M 327.03689 497.81369 A 2.4748738 2.4748738 0 1 1  322.08714,497.81369 A 2.4748738 2.4748738 0 1 1  327.03689 497.81369 z"
           sodipodi:ry="2.4748738"
           sodipodi:rx="2.4748738"
           sodipodi:cy="497.81369"
           sodipodi:cx="324.56201"
           id="path15372"
           style="fill:#ffffff;fill-opacity:1;fill-rule:evenodd"
           sodipodi:type="arc" />
        <path
           sodipodi:type="arc"
           style="fill:url(#radialGradient2244);fill-opacity:1;fill-rule:evenodd"
           id="path15374"
           sodipodi:cx="324.56201"
           sodipodi:cy="497.81369"
           sodipodi:rx="2.4748738"
           sodipodi:ry="2.4748738"
           d="M 327.03689 497.81369 A 2.4748738 2.4748738 0 1 1  322.08714,497.81369 A 2.4748738 2.4748738 0 1 1  327.03689 497.81369 z"
           transform="matrix(1.5,0,0,1.5357143,-123.21335,-245.38431)" />
        <path
           transform="translate(65.230601,19.26866)"
           d="M 301.58104 500.02341 A 1.8561553 1.8561553 0 1 1  297.86873,500.02341 A 1.8561553 1.8561553 0 1 1  301.58104 500.02341 z"
           sodipodi:ry="1.8561553"
           sodipodi:rx="1.8561553"
           sodipodi:cy="500.02341"
           sodipodi:cx="299.72488"
           id="path15376"
           style="fill:#000000;fill-opacity:1;fill-rule:evenodd"
           sodipodi:type="arc" />
      </g>
      <path
         transform="matrix(0.5303224,-5.6527163e-2,-0.2860941,0.587971,481.8442,-274.93794)"
         d="M 363.625 75.049683 A 2.125 3.3125 0 1 1  359.375,75.049683 A 2.125 3.3125 0 1 1  363.625 75.049683 z"
         sodipodi:ry="3.3125"
         sodipodi:rx="2.125"
         sodipodi:cy="75.049683"
         sodipodi:cx="361.5"
         id="path31929"
         style="opacity:0.35;fill:#ffffff;fill-opacity:1;fill-rule:evenodd;stroke:none;stroke-opacity:1;filter:url(#filter4168)"
         sodipodi:type="arc" />
    </g>
    <g
       id="ghost_prey"
       inkscape:label="Blinky">
      <path
         style="fill:#0000ff;fill-opacity:1;fill-rule:evenodd;stroke:none;stroke-width:0.10050607px;stroke-linecap:butt;stroke-linejoin:miter;stroke-opacity:1"
         d="M 693.98869,-266.34108 C 693.98869,-265.07113 693.84939,-255.55999 693.58505,-254.36787 C 693.15534,-252.43011 692.39525,-251.13086 691.36599,-250.27195 C 690.33672,-249.41304 689.0383,-248.99449 687.53195,-248.81817 C 686.0256,-248.64182 684.31134,-253.55746 682.45039,-253.66744 C 680.58943,-253.7774 678.58178,-249.08172 676.4887,-249.08172 C 674.40639,-249.08172 672.40862,-253.77369 670.55575,-253.65719 C 668.70285,-253.54069 666.99485,-248.61576 665.49198,-248.78089 C 663.98915,-248.94604 662.69147,-249.35153 661.65925,-250.19644 C 660.62703,-251.04135 659.86027,-252.32567 659.4193,-254.24847 C 659.13747,-255.47724 658.98871,-265.02867 658.98871,-266.34108 C 658.98871,-275.86825 666.82871,-283.60044 676.4887,-283.60044 C 686.1487,-283.60044 693.98869,-275.86825 693.98869,-266.34108 z "
         id="path3216"
         sodipodi:nodetypes="csssssssssssc" />
      <path
         sodipodi:nodetypes="csssssssssssc"
         id="path3218"
         d="M 693.98868,-266.34071 C 693.98868,-265.07075 693.84938,-255.55961 693.58504,-254.36749 C 693.15533,-252.42974 692.39524,-251.13048 691.36597,-250.27157 C 690.33671,-249.41267 689.03829,-248.99411 687.53195,-248.81779 C 686.02559,-248.64146 684.31133,-253.55708 682.45037,-253.66706 C 680.58942,-253.77703 678.58177,-249.08135 676.48869,-249.08135 C 674.40638,-249.08135 672.40862,-253.77331 670.55574,-253.65681 C 668.70285,-253.54032 666.99483,-248.61538 665.49198,-248.78052 C 663.98913,-248.94566 662.69145,-249.35116 661.65924,-250.19606 C 660.62702,-251.04097 659.86026,-252.3253 659.41929,-254.2481 C 659.13747,-255.47687 658.9887,-265.02829 658.9887,-266.34071 C 658.9887,-275.86787 666.8287,-283.60006 676.48869,-283.60006 C 686.14869,-283.60006 693.98868,-275.86787 693.98868,-266.34071 z "
         style="fill:url(#radialGradient3257);fill-opacity:1;fill-rule:evenodd;stroke:none;stroke-width:0.10050607px;stroke-linecap:butt;stroke-linejoin:miter;stroke-opacity:1" />
      <path
         sodipodi:type="arc"
         style="fill:#ffffff;fill-opacity:1;fill-rule:evenodd"
         id="path3222"
         sodipodi:cx="324.56201"
         sodipodi:cy="497.81369"
         sodipodi:rx="2.4748738"
         sodipodi:ry="2.4748738"
         d="M 327.03689 497.81369 A 2.4748738 2.4748738 0 1 1  322.08714,497.81369 A 2.4748738 2.4748738 0 1 1  327.03689 497.81369 z"
         transform="matrix(1.8191769,0,0,1.8531047,80.644353,-1193.5396)" />
      <path
         transform="matrix(1.8191769,0,0,1.8531047,80.644354,-1193.5396)"
         d="M 327.03689 497.81369 A 2.4748738 2.4748738 0 1 1  322.08714,497.81369 A 2.4748738 2.4748738 0 1 1  327.03689 497.81369 z"
         sodipodi:ry="2.4748738"
         sodipodi:rx="2.4748738"
         sodipodi:cy="497.81369"
         sodipodi:cx="324.56201"
         id="path3224"
         style="fill:url(#radialGradient3270);fill-opacity:1;fill-rule:evenodd"
         sodipodi:type="arc" />
      <path
         transform="matrix(0.6635901,0.7481522,-0.7519415,0.6602459,850.12899,-836.25131)"
         style="opacity:0.35;fill:#ffffff;fill-opacity:1;fill-rule:evenodd;filter:url(#filter3195)"
         d="M 300.70774,507.31143 C 300.70774,511.11708 300.96943,514.07715 299.99005,514.07715 C 299.01067,514.07715 297.43994,511.60053 297.43994,507.79488 C 297.43994,503.98923 299.01067,500.28857 299.99005,500.28857 C 300.96832,500.28857 300.60859,502.94036 300.61032,506.74171 L 299.99005,507.18286 L 300.70774,507.31143 z "
         id="path3228"
         sodipodi:nodetypes="csssccc" />
      <path
         transform="matrix(1.8191769,0,0,1.8531047,92.872987,-1193.5396)"
         d="M 327.03689 497.81369 A 2.4748738 2.4748738 0 1 1  322.08714,497.81369 A 2.4748738 2.4748738 0 1 1  327.03689 497.81369 z"
         sodipodi:ry="2.4748738"
         sodipodi:rx="2.4748738"
         sodipodi:cy="497.81369"
         sodipodi:cx="324.56201"
         id="path3232"
         style="fill:#ffffff;fill-opacity:1;fill-rule:evenodd"
         sodipodi:type="arc" />
      <path
         sodipodi:type="arc"
         style="fill:url(#radialGradient3272);fill-opacity:1;fill-rule:evenodd"
         id="path3234"
         sodipodi:cx="324.56201"
         sodipodi:cy="497.81369"
         sodipodi:rx="2.4748738"
         sodipodi:ry="2.4748738"
         d="M 327.03689 497.81369 A 2.4748738 2.4748738 0 1 1  322.08714,497.81369 A 2.4748738 2.4748738 0 1 1  327.03689 497.81369 z"
         transform="matrix(1.8191769,0,0,1.8531047,92.872987,-1193.5396)" />
      <path
         sodipodi:type="arc"
         style="opacity:0.35;fill:#ffffff;fill-opacity:1;fill-rule:evenodd;stroke:none;stroke-opacity:1;filter:url(#filter4168)"
         id="path3238"
         sodipodi:cx="361.5"
         sodipodi:cy="75.049683"
         sodipodi:rx="2.125"
         sodipodi:ry="3.3125"
         d="M 363.625 75.049683 A 2.125 3.3125 0 1 1  359.375,75.049683 A 2.125 3.3125 0 1 1  363.625 75.049683 z"
         transform="matrix(0.5303224,-5.6527163e-2,-0.2860941,0.587971,520.20474,-275.64505)" />
    </g>
    <g
       id="ghost_prey_white"
       inkscape:label="Blinky">
      <path
         sodipodi:nodetypes="csssssssssssc"
         id="path4255"
         d="M 735.70799,-267.04819 C 735.70799,-265.77824 735.56869,-256.2671 735.30435,-255.07498 C 734.87464,-253.13722 734.11455,-251.83797 733.08529,-250.97906 C 732.05602,-250.12015 730.7576,-249.7016 729.25125,-249.52528 C 727.7449,-249.34893 726.03064,-254.26457 724.16969,-254.37455 C 722.30873,-254.48451 720.30108,-249.78883 718.208,-249.78883 C 716.12569,-249.78883 714.12792,-254.4808 712.27505,-254.3643 C 710.42215,-254.2478 708.71415,-249.32287 707.21128,-249.488 C 705.70845,-249.65315 704.41077,-250.05864 703.37855,-250.90355 C 702.34633,-251.74846 701.57957,-253.03278 701.1386,-254.95558 C 700.85677,-256.18435 700.70801,-265.73578 700.70801,-267.04819 C 700.70801,-276.57536 708.54801,-284.30755 718.208,-284.30755 C 727.868,-284.30755 735.70799,-276.57536 735.70799,-267.04819 z "
         style="fill:#ffffff;fill-opacity:1;fill-rule:evenodd;stroke:none;stroke-width:0.10050607px;stroke-linecap:butt;stroke-linejoin:miter;stroke-opacity:1" />
      <path
         style="fill:url(#radialGradient4284);fill-opacity:1;fill-rule:evenodd;stroke:none;stroke-width:0.10050607px;stroke-linecap:butt;stroke-linejoin:miter;stroke-opacity:1"
         d="M 735.70814,-267.04797 C 735.70814,-265.77801 735.56884,-256.26687 735.3045,-255.07475 C 734.87479,-253.137 734.1147,-251.83774 733.08543,-250.97883 C 732.05617,-250.11993 730.75775,-249.70137 729.25141,-249.52505 C 727.74505,-249.34872 726.03079,-254.26434 724.16983,-254.37432 C 722.30888,-254.48429 720.30123,-249.78861 718.20815,-249.78861 C 716.12584,-249.78861 714.12808,-254.48057 712.2752,-254.36407 C 710.42231,-254.24758 708.71429,-249.32264 707.21144,-249.48778 C 705.70859,-249.65292 704.41091,-250.05842 703.3787,-250.90332 C 702.34648,-251.74823 701.57972,-253.03256 701.13875,-254.95536 C 700.85693,-256.18413 700.70816,-265.73555 700.70816,-267.04797 C 700.70816,-276.57513 708.54816,-284.30732 718.20815,-284.30732 C 727.86815,-284.30732 735.70814,-276.57513 735.70814,-267.04797 z "
         id="path4257"
         sodipodi:nodetypes="csssssssssssc" />
      <path
         transform="matrix(1.8191769,0,0,1.8531047,122.36365,-1194.2467)"
         d="M 327.03689 497.81369 A 2.4748738 2.4748738 0 1 1  322.08714,497.81369 A 2.4748738 2.4748738 0 1 1  327.03689 497.81369 z"
         sodipodi:ry="2.4748738"
         sodipodi:rx="2.4748738"
         sodipodi:cy="497.81369"
         sodipodi:cx="324.56201"
         id="path4259"
         style="fill:#ff0000;fill-opacity:1;fill-rule:evenodd"
         sodipodi:type="arc" />
      <path
         sodipodi:type="arc"
         style="fill:url(#radialGradient4273);fill-opacity:1;fill-rule:evenodd"
         id="path4261"
         sodipodi:cx="324.56201"
         sodipodi:cy="497.81369"
         sodipodi:rx="2.4748738"
         sodipodi:ry="2.4748738"
         d="M 327.03689 497.81369 A 2.4748738 2.4748738 0 1 1  322.08714,497.81369 A 2.4748738 2.4748738 0 1 1  327.03689 497.81369 z"
         transform="matrix(1.8191769,0,0,1.8531047,122.36365,-1194.2467)" />
      <path
         sodipodi:nodetypes="csssccc"
         id="path4263"
         d="M 300.70774,507.31143 C 300.70774,511.11708 300.96943,514.07715 299.99005,514.07715 C 299.01067,514.07715 297.43994,511.60053 297.43994,507.79488 C 297.43994,503.98923 299.01067,500.28857 299.99005,500.28857 C 300.96832,500.28857 300.60859,502.94036 300.61032,506.74171 L 299.99005,507.18286 L 300.70774,507.31143 z "
         style="opacity:0.35;fill:#ffffff;fill-opacity:1;fill-rule:evenodd;filter:url(#filter3195)"
         transform="matrix(0.6635901,0.7481522,-0.7519415,0.6602459,891.84829,-836.95842)" />
      <path
         sodipodi:type="arc"
         style="fill:#ff0000;fill-opacity:1;fill-rule:evenodd"
         id="path4265"
         sodipodi:cx="324.56201"
         sodipodi:cy="497.81369"
         sodipodi:rx="2.4748738"
         sodipodi:ry="2.4748738"
         d="M 327.03689 497.81369 A 2.4748738 2.4748738 0 1 1  322.08714,497.81369 A 2.4748738 2.4748738 0 1 1  327.03689 497.81369 z"
         transform="matrix(1.8191769,0,0,1.8531047,134.59229,-1194.2467)" />
      <path
         transform="matrix(1.8191769,0,0,1.8531047,134.59229,-1194.2467)"
         d="M 327.03689 497.81369 A 2.4748738 2.4748738 0 1 1  322.08714,497.81369 A 2.4748738 2.4748738 0 1 1  327.03689 497.81369 z"
         sodipodi:ry="2.4748738"
         sodipodi:rx="2.4748738"
         sodipodi:cy="497.81369"
         sodipodi:cx="324.56201"
         id="path4267"
         style="fill:url(#radialGradient4275);fill-opacity:1;fill-rule:evenodd"
         sodipodi:type="arc" />
      <path
         transform="matrix(0.5303224,-5.6527163e-2,-0.2860941,0.587971,561.92404,-276.35216)"
         d="M 363.625 75.049683 A 2.125 3.3125 0 1 1  359.375,75.049683 A 2.125 3.3125 0 1 1  363.625 75.049683 z"
         sodipodi:ry="3.3125"
         sodipodi:rx="2.125"
         sodipodi:cy="75.049683"
         sodipodi:cx="361.5"
         id="path4269"
         style="opacity:0.35;fill:#ffffff;fill-opacity:1;fill-rule:evenodd;stroke:none;stroke-opacity:1;filter:url(#filter4168)"
         sodipodi:type="arc" />
    </g>
    <g
       id="ghost_eaten"
       inkscape:label="Blinky"
       transform="translate(-3.3582382,-1.0726815)">
      <g
         id="g2396"
         transform="matrix(1.2127846,0,0,1.2066728,310.56446,-898.67841)">
        <path
           transform="matrix(1.5,0,0,1.5357143,-123.21335,-245.38431)"
           d="M 327.03689 497.81369 A 2.4748738 2.4748738 0 1 1  322.08714,497.81369 A 2.4748738 2.4748738 0 1 1  327.03689 497.81369 z"
           sodipodi:ry="2.4748738"
           sodipodi:rx="2.4748738"
           sodipodi:cy="497.81369"
           sodipodi:cx="324.56201"
           id="path2398"
           style="fill:#ffffff;fill-opacity:1;fill-rule:evenodd"
           sodipodi:type="arc" />
        <path
           sodipodi:type="arc"
           style="fill:url(#radialGradient2404);fill-opacity:1;fill-rule:evenodd"
           id="path2400"
           sodipodi:cx="324.56201"
           sodipodi:cy="497.81369"
           sodipodi:rx="2.4748738"
           sodipodi:ry="2.4748738"
           d="M 327.03689 497.81369 A 2.4748738 2.4748738 0 1 1  322.08714,497.81369 A 2.4748738 2.4748738 0 1 1  327.03689 497.81369 z"
           transform="matrix(1.5,0,0,1.5357143,-123.21335,-245.38431)" />
        <path
           transform="translate(65.230601,19.26866)"
           d="M 301.58104 500.02341 A 1.8561553 1.8561553 0 1 1  297.86873,500.02341 A 1.8561553 1.8561553 0 1 1  301.58104 500.02341 z"
           sodipodi:ry="1.8561553"
           sodipodi:rx="1.8561553"
           sodipodi:cy="500.02341"
           sodipodi:cx="299.72488"
           id="path2402"
           style="fill:#000000;fill-opacity:1;fill-rule:evenodd"
           sodipodi:type="arc" />
      </g>
      <g
         transform="matrix(1.2127846,0,0,1.2066728,321.62512,-898.67841)"
         id="g2406">
        <path
           sodipodi:type="arc"
           style="fill:#ffffff;fill-opacity:1;fill-rule:evenodd"
           id="path2408"
           sodipodi:cx="324.56201"
           sodipodi:cy="497.81369"
           sodipodi:rx="2.4748738"
           sodipodi:ry="2.4748738"
           d="M 327.03689 497.81369 A 2.4748738 2.4748738 0 1 1  322.08714,497.81369 A 2.4748738 2.4748738 0 1 1  327.03689 497.81369 z"
           transform="matrix(1.5,0,0,1.5357143,-123.21335,-245.38431)" />
        <path
           transform="matrix(1.5,0,0,1.5357143,-123.21335,-245.38431)"
           d="M 327.03689 497.81369 A 2.4748738 2.4748738 0 1 1  322.08714,497.81369 A 2.4748738 2.4748738 0 1 1  327.03689 497.81369 z"
           sodipodi:ry="2.4748738"
           sodipodi:rx="2.4748738"
           sodipodi:cy="497.81369"
           sodipodi:cx="324.56201"
           id="path2410"
           style="fill:url(#radialGradient2414);fill-opacity:1;fill-rule:evenodd"
           sodipodi:type="arc" />
        <path
           sodipodi:type="arc"
           style="fill:#000000;fill-opacity:1;fill-rule:evenodd"
           id="path2412"
           sodipodi:cx="299.72488"
           sodipodi:cy="500.02341"
           sodipodi:rx="1.8561553"
           sodipodi:ry="1.8561553"
           d="M 301.58104 500.02341 A 1.8561553 1.8561553 0 1 1  297.86873,500.02341 A 1.8561553 1.8561553 0 1 1  301.58104 500.02341 z"
           transform="translate(65.230601,19.26866)" />
      </g>
    </g>
  </g>
</svg>
